<svg xmlns="http://www.w3.org/2000/svg" width="24" height="24" viewBox="0 0 24 24"><defs><style>.a,.b{fill:#fff;}.a{opacity:0;}</style></defs><g transform="translate(-565 -80)"><rect class="a" width="24" height="24" transform="translate(565 80)"/><path class="b" d="M4.293,13.122a1,1,0,0,1,0-1.414L8.172,7.829H-2.171a1,1,0,0,1-1-1,1,1,0,0,1,1-1H8.313l-4.02-4.02A1,1,0,0,1,5.707.394L11.34,6.026l.024.024a1,1,0,0,1,0,1.415L5.707,13.122a1,1,0,0,1-1.414,0Z" transform="translate(583.829 88.171) rotate(90)"/></g></svg>