<svg xmlns="http://www.w3.org/2000/svg" width="24" height="24" viewBox="0 0 24 24"><defs><style>.a{fill:#6da544;}.b{fill:#d80027;}.c{fill:#ffda44;}.d{fill:#f0f0f0;}</style></defs><path class="a" d="M0,27.177A12,12,0,0,0,7.826,38.43L8.87,27.177,7.826,15.923A12,12,0,0,0,0,27.177Z" transform="translate(0 -15.177)"/><path class="b" d="M183.129,12A12.007,12.007,0,0,0,166.955.746V23.254A12.007,12.007,0,0,0,183.129,12Z" transform="translate(-159.129)"/><circle class="c" cx="4.174" cy="4.174" r="4.174" transform="translate(3.652 7.826)"/><path class="b" d="M116.87,211.478v2.609a2.348,2.348,0,1,0,4.7,0v-2.609Z" transform="translate(-111.392 -201.565)"/><path class="d" d="M151.044,246.7a.784.784,0,0,1-.783-.783V244.87h1.565v1.043A.783.783,0,0,1,151.044,246.7Z" transform="translate(-143.218 -233.392)"/></svg>