<svg xmlns="http://www.w3.org/2000/svg" width="24" height="24" viewBox="0 0 24 24"><defs><style>.a{fill:#f0f0f0;}.b{fill:#d80027;}.c{fill:#0052b4;}</style></defs><circle class="a" cx="12" cy="12" r="12"/><g transform="translate(0.413 2.609)"><path class="b" d="M244.87,192.347h12.522a12.013,12.013,0,0,0-.413-3.13H244.87Z" transform="translate(-233.805 -182.956)"/><path class="b" d="M244.87,58.782h10.76a12.063,12.063,0,0,0-2.769-3.13H244.87Z" transform="translate(-233.805 -55.652)"/><path class="b" d="M104.114,458.957a11.948,11.948,0,0,0,7.47-2.609H96.644A11.948,11.948,0,0,0,104.114,458.957Z" transform="translate(-92.527 -437.565)"/><path class="b" d="M10.167,325.912H30.644a11.928,11.928,0,0,0,1.348-3.13H8.819A11.928,11.928,0,0,0,10.167,325.912Z" transform="translate(-8.819 -310.26)"/></g><path class="c" d="M5.559,1.874H6.652l-1.017.739.389,1.2L5.006,3.07l-1.017.739.336-1.033A12.066,12.066,0,0,0,2,5.37h.35L1.7,5.84q-.151.252-.29.513l.309.952-.577-.419q-.215.456-.392.932l.341,1.049H2.348L1.331,9.6l.389,1.2L.7,10.061.093,10.5A12.116,12.116,0,0,0,0,12H12V0A11.943,11.943,0,0,0,5.559,1.874ZM6.024,10.8l-1.017-.739L3.989,10.8l.389-1.2L3.361,8.865H4.618l.389-1.2.388,1.2H6.652L5.635,9.6ZM5.635,6.109l.389,1.2L5.006,6.565,3.989,7.3l.389-1.2L3.361,5.37H4.618l.389-1.2.389,1.2H6.652ZM10.328,10.8l-1.017-.739L8.294,10.8l.389-1.2L7.665,8.865H8.922l.388-1.2.389,1.2h1.257L9.939,9.6ZM9.939,6.109l.389,1.2L9.311,6.565,8.294,7.3l.389-1.2L7.665,5.37H8.922l.388-1.2L9.7,5.37h1.257Zm0-3.5.389,1.2L9.311,3.07l-1.017.739.389-1.2L7.665,1.874H8.922l.388-1.2.389,1.2h1.257Z"/></svg>